<svg xmlns="http://www.w3.org/2000/svg" viewBox="0 0 1600 900" width="1600" height="900" fill="none">
  <defs>
    <linearGradient id="g" x1="0" y1="0" x2="1" y2="1">
      <stop offset="0" stop-color="#02604f"/>
      <stop offset="0.55" stop-color="#014D40"/>
      <stop offset="1" stop-color="#012620"/>
    </linearGradient>
    <radialGradient id="r" cx="0.2" cy="0.2" r="0.9">
      <stop offset="0" stop-color="#C5A06A" stop-opacity="0.22"/>
      <stop offset="1" stop-color="#C5A06A" stop-opacity="0"/>
    </radialGradient>
  </defs>
  <rect width="1600" height="900" fill="url(#g)"/>
  <rect width="1600" height="900" fill="url(#r)"/>
  <g opacity="0.10" stroke="#FFFFFF" stroke-width="1.5">
    <line x1="0" y1="0" x2="300" y2="900"/><line x1="95" y1="0" x2="395" y2="900"/><line x1="190" y1="0" x2="490" y2="900"/><line x1="285" y1="0" x2="585" y2="900"/><line x1="380" y1="0" x2="680" y2="900"/><line x1="475" y1="0" x2="775" y2="900"/><line x1="570" y1="0" x2="870" y2="900"/><line x1="665" y1="0" x2="965" y2="900"/><line x1="760" y1="0" x2="1060" y2="900"/><line x1="855" y1="0" x2="1155" y2="900"/><line x1="950" y1="0" x2="1250" y2="900"/><line x1="1045" y1="0" x2="1345" y2="900"/><line x1="1140" y1="0" x2="1440" y2="900"/><line x1="1235" y1="0" x2="1535" y2="900"/><line x1="1330" y1="0" x2="1630" y2="900"/><line x1="1425" y1="0" x2="1725" y2="900"/><line x1="1520" y1="0" x2="1820" y2="900"/><line x1="1615" y1="0" x2="1915" y2="900"/>
  </g>
  <g opacity="0.9">
    <circle cx="1240" cy="640" r="150" fill="#ffffff" opacity="0.04"/>
    <rect x="1140" y="430" width="120" height="320" rx="22" fill="#C5A06A" opacity="0.18"/>
    <rect x="1290" y="500" width="90" height="250" rx="18" fill="#ffffff" opacity="0.10"/>
  </g>
</svg>
